<svg width="253" height="82" viewBox="0 0 253 82" fill="none" xmlns="http://www.w3.org/2000/svg">
<path d="M109.118 36.3363V47.7482C109.118 48.5215 109.293 49.0827 109.642 49.432C110.016 49.7562 110.64 49.9184 111.513 49.9184H114.132V53.4729H110.764C108.844 53.4729 107.372 53.0239 106.349 52.1259C105.327 51.2279 104.815 49.7687 104.815 47.7482V36.3363H102.383V32.8566H104.815V27.7306H109.118V32.8566H114.132V36.3363H109.118ZM127.006 53.8096C125.06 53.8096 123.301 53.3731 121.73 52.5001C120.158 51.6021 118.924 50.3549 118.026 48.7585C117.128 47.1371 116.679 45.2663 116.679 43.146C116.679 41.0507 117.14 39.1924 118.063 37.571C118.986 35.9497 120.246 34.7025 121.842 33.8294C123.439 32.9564 125.222 32.5199 127.193 32.5199C129.163 32.5199 130.947 32.9564 132.543 33.8294C134.14 34.7025 135.399 35.9497 136.322 37.571C137.245 39.1924 137.707 41.0507 137.707 43.146C137.707 45.2413 137.233 47.0997 136.285 48.721C135.337 50.3424 134.04 51.6021 132.393 52.5001C130.772 53.3731 128.976 53.8096 127.006 53.8096ZM127.006 50.1054C128.103 50.1054 129.126 49.8435 130.074 49.3197C131.047 48.7959 131.832 48.0101 132.431 46.9625C133.03 45.9148 133.329 44.6427 133.329 43.146C133.329 41.6494 133.042 40.3897 132.468 39.367C131.895 38.3194 131.134 37.5336 130.186 37.0098C129.238 36.486 128.215 36.2241 127.118 36.2241C126.02 36.2241 124.998 36.486 124.05 37.0098C123.127 37.5336 122.391 38.3194 121.842 39.367C121.293 40.3897 121.019 41.6494 121.019 43.146C121.019 45.3661 121.58 47.0872 122.703 48.3095C123.85 49.5068 125.284 50.1054 127.006 50.1054ZM140.501 40.4147C140.501 37.8704 141.088 35.588 142.26 33.5675C143.457 31.547 145.066 29.9756 147.087 28.8531C149.132 27.7056 151.365 27.1319 153.784 27.1319C156.553 27.1319 159.01 27.8179 161.155 29.1898C163.325 30.5368 164.897 32.4575 165.87 34.9519H160.744C160.07 33.58 159.135 32.5573 157.937 31.8838C156.74 31.2103 155.356 30.8735 153.784 30.8735C152.063 30.8735 150.529 31.2602 149.182 32.0334C147.835 32.8067 146.775 33.9167 146.002 35.3635C145.253 36.8102 144.879 38.494 144.879 40.4147C144.879 42.3354 145.253 44.0191 146.002 45.4658C146.775 46.9126 147.835 48.0351 149.182 48.8333C150.529 49.6066 152.063 49.9932 153.784 49.9932C155.356 49.9932 156.74 49.6565 157.937 48.983C159.135 48.3095 160.07 47.2868 160.744 45.9148H165.87C164.897 48.4092 163.325 50.3299 161.155 51.6769C159.01 53.0239 156.553 53.6974 153.784 53.6974C151.34 53.6974 149.107 53.1362 147.087 52.0137C145.066 50.8662 143.457 49.2823 142.26 47.2618C141.088 45.2413 140.501 42.959 140.501 40.4147ZM175.128 25.7849V53.4729H170.862V25.7849H175.128ZM189.67 53.8096C187.725 53.8096 185.966 53.3731 184.395 52.5001C182.823 51.6021 181.588 50.3549 180.69 48.7585C179.792 47.1371 179.343 45.2663 179.343 43.146C179.343 41.0507 179.805 39.1924 180.728 37.571C181.651 35.9497 182.91 34.7025 184.507 33.8294C186.103 32.9564 187.887 32.5199 189.857 32.5199C191.828 32.5199 193.611 32.9564 195.208 33.8294C196.804 34.7025 198.064 35.9497 198.987 37.571C199.91 39.1924 200.371 41.0507 200.371 43.146C200.371 45.2413 199.897 47.0997 198.95 48.721C198.002 50.3424 196.705 51.6021 195.058 52.5001C193.437 53.3731 191.641 53.8096 189.67 53.8096ZM189.67 50.1054C190.768 50.1054 191.791 49.8435 192.738 49.3197C193.711 48.7959 194.497 48.0101 195.096 46.9625C195.694 45.9148 195.994 44.6427 195.994 43.146C195.994 41.6494 195.707 40.3897 195.133 39.367C194.559 38.3194 193.799 37.5336 192.851 37.0098C191.903 36.486 190.88 36.2241 189.783 36.2241C188.685 36.2241 187.662 36.486 186.714 37.0098C185.791 37.5336 185.056 38.3194 184.507 39.367C183.958 40.3897 183.684 41.6494 183.684 43.146C183.684 45.3661 184.245 47.0872 185.367 48.3095C186.515 49.5068 187.949 50.1054 189.67 50.1054ZM223.259 32.8566V53.4729H218.993V51.0409C218.32 51.8889 217.434 52.5624 216.337 53.0613C215.264 53.5353 214.117 53.7722 212.894 53.7722C211.273 53.7722 209.814 53.4355 208.517 52.762C207.244 52.0885 206.234 51.0907 205.486 49.7687C204.763 48.4467 204.401 46.8502 204.401 44.9794V32.8566H208.629V44.3434C208.629 46.1892 209.09 47.611 210.013 48.6088C210.936 49.5816 212.196 50.068 213.792 50.068C215.389 50.068 216.648 49.5816 217.571 48.6088C218.519 47.611 218.993 46.1892 218.993 44.3434V32.8566H223.259ZM227.465 43.0712C227.465 41.0008 227.889 39.1675 228.737 37.571C229.61 35.9746 230.782 34.7399 232.254 33.8668C233.751 32.9688 235.409 32.5199 237.23 32.5199C238.577 32.5199 239.899 32.8192 241.196 33.4178C242.518 33.9916 243.566 34.7648 244.339 35.7376V25.7849H248.642V53.4729H244.339V50.3674C243.641 51.3651 242.668 52.1883 241.421 52.8368C240.199 53.4854 238.789 53.8096 237.193 53.8096C235.397 53.8096 233.751 53.3607 232.254 52.4627C230.782 51.5397 229.61 50.2676 228.737 48.6462C227.889 46.9999 227.465 45.1416 227.465 43.0712ZM244.339 43.146C244.339 41.7242 244.04 40.4895 243.441 39.4418C242.868 38.3942 242.107 37.596 241.159 37.0472C240.211 36.4984 239.188 36.2241 238.091 36.2241C236.993 36.2241 235.971 36.4984 235.023 37.0472C234.075 37.571 233.302 38.3568 232.703 39.4044C232.129 40.4271 231.842 41.6494 231.842 43.0712C231.842 44.493 232.129 45.7402 232.703 46.8128C233.302 47.8854 234.075 48.7086 235.023 49.2823C235.996 49.8311 237.018 50.1054 238.091 50.1054C239.188 50.1054 240.211 49.8311 241.159 49.2823C242.107 48.7335 242.868 47.9353 243.441 46.8877C244.04 45.8151 244.339 44.5679 244.339 43.146Z" fill="white"/>
<rect opacity="0.2" width="74.8323" height="74.8323" rx="37.4161" fill="white"/>
<rect x="32.7391" y="31.1802" width="49.8882" height="49.8882" rx="24.9441" fill="white"/>
</svg>
